<?xml version="1.0" standalone="no"?>
<!DOCTYPE svg PUBLIC "-//W3C//DTD SVG 20010904//EN"
 "http://www.w3.org/TR/2001/REC-SVG-20010904/DTD/svg10.dtd">
<svg version="1.0" xmlns="http://www.w3.org/2000/svg"
 width="644.000000pt" height="569.000000pt" viewBox="0 0 644.000000 569.000000"
 preserveAspectRatio="xMidYMid meet">

<g transform="translate(0.000000,569.000000) scale(0.100000,-0.100000)"
fill="#000000" stroke="none">
<path d="M531 2183 c-11 -38 -35 -126 -55 -198 -20 -71 -63 -229 -96 -350 -33
-121 -60 -226 -60 -233 0 -10 28 -12 122 -10 l122 3 37 180 c21 99 43 209 49
245 6 35 13 66 16 69 2 2 4 -109 4 -248 l0 -252 96 3 96 3 50 145 c28 80 66
195 86 255 20 61 38 101 39 90 2 -11 -10 -123 -25 -250 -16 -126 -26 -234 -22
-238 4 -4 58 -6 121 -5 l114 3 7 130 c4 72 14 243 22 380 9 138 16 271 16 298
l0 47 -139 0 -139 0 -12 -32 c-7 -18 -40 -115 -75 -216 -35 -101 -66 -186 -70
-190 -4 -4 -4 93 0 216 l8 222 -146 0 -146 0 -20 -67z"/>
<path d="M1385 2133 c-29 -189 -31 -205 -74 -476 -23 -142 -41 -260 -41 -263
0 -2 98 -3 218 -2 l217 3 6 45 c3 25 10 69 14 98 l8 52 -95 0 c-52 0 -97 2
-100 5 -2 3 0 32 5 65 l10 60 73 1 c91 2 91 2 102 14 9 10 32 135 32 175 0 20
-4 22 -72 20 -40 -1 -79 -2 -85 -1 -16 1 -17 59 -3 95 9 25 11 26 108 26 l99
0 11 78 c7 42 12 87 12 100 l0 22 -213 0 -213 0 -19 -117z"/>
<path d="M1926 2238 c-2 -7 -16 -92 -31 -188 -15 -96 -36 -231 -47 -300 -30
-185 -14 -271 58 -326 102 -78 304 -62 411 33 69 62 94 140 138 428 14 94 32
208 40 255 8 47 15 91 15 98 0 9 -30 12 -115 12 -63 0 -115 -3 -115 -7 0 -5
-16 -107 -35 -228 -19 -121 -40 -251 -46 -290 -6 -38 -18 -82 -25 -97 -16 -31
-59 -46 -83 -31 -30 19 -17 149 63 631 3 22 2 22 -111 22 -82 0 -115 -3 -117
-12z"/>
<path d="M305 1258 c-10 -33 -27 -126 -50 -273 -32 -213 -111 -710 -128 -810
l-13 -80 188 -3 c161 -2 200 0 268 18 226 56 370 222 437 504 26 108 23 323
-5 395 -55 139 -161 221 -323 250 -93 16 -368 15 -374 -1z m351 -304 c94 -69
58 -403 -58 -537 -25 -29 -113 -63 -123 -47 -3 5 2 51 10 102 9 51 24 149 35
218 49 321 43 302 84 292 11 -2 35 -15 52 -28z"/>
<path d="M1216 1243 c-18 -99 -72 -441 -81 -513 -4 -30 -19 -129 -35 -220 -37
-217 -60 -370 -60 -397 l0 -23 293 0 293 0 12 98 c7 53 15 114 18 135 l7 37
-138 0 -138 0 7 38 c3 20 9 63 13 95 3 31 11 57 17 58 6 0 61 0 123 -1 102 -1
112 0 117 18 7 19 45 246 42 248 0 1 -52 4 -114 6 -62 3 -115 8 -119 12 -3 3
-2 41 3 83 l9 78 140 5 140 5 17 105 c9 58 19 117 22 133 l6 27 -294 0 -294 0
-6 -27z"/>
<path d="M1921 1128 c-12 -79 -35 -228 -51 -333 -16 -104 -45 -289 -64 -410
-20 -121 -39 -237 -42 -257 l-6 -38 276 0 276 0 5 23 c8 34 35 215 35 232 0
13 -20 15 -120 15 l-119 0 4 28 c6 31 61 379 99 617 14 88 28 184 32 213 l7
52 -155 0 -154 0 -23 -142z"/>
<path d="M2576 1258 c-3 -12 -70 -430 -102 -638 -8 -52 -21 -133 -29 -180 -8
-47 -22 -132 -30 -190 -8 -58 -18 -117 -21 -133 l-6 -27 156 0 c153 0 156 0
160 23 3 12 17 99 31 192 14 94 32 211 40 260 8 50 26 162 40 250 53 340 67
421 71 438 5 16 -7 17 -151 17 -116 0 -157 -3 -159 -12z"/>
<path d="M2940 1214 c0 -63 66 -1016 75 -1081 l6 -43 158 0 159 0 12 33 c7 17
24 56 37 85 12 29 23 55 23 57 0 3 18 47 41 97 22 51 47 107 54 123 16 37 36
83 69 158 14 32 26 60 26 63 0 3 9 24 19 47 10 23 47 107 81 187 35 80 80 185
101 234 22 49 39 91 39 93 0 2 -75 2 -167 1 l-168 -3 -102 -310 c-56 -171
-110 -339 -119 -375 -10 -36 -21 -69 -25 -74 -5 -5 -5 165 -2 377 l6 387 -161
0 -162 0 0 -56z"/>
<path d="M3887 1233 c-4 -21 -17 -110 -31 -198 -14 -88 -32 -200 -40 -250 -16
-96 -56 -345 -81 -510 -9 -55 -19 -119 -24 -142 l-8 -43 296 0 296 0 18 128
c10 70 17 130 17 135 0 4 -61 7 -136 7 l-136 0 6 33 c3 17 10 61 16 97 l11 65
92 -3 c51 -2 108 0 127 5 38 10 35 0 55 168 3 28 9 60 12 73 5 22 5 22 -115
22 -67 0 -123 3 -126 8 -2 4 0 30 5 57 5 28 11 65 14 83 l6 32 138 0 139 0 17
113 c9 61 19 122 22 135 l5 22 -295 0 -294 0 -6 -37z"/>
<path d="M4616 1253 c-3 -10 -17 -94 -31 -188 -14 -93 -39 -251 -55 -350 -16
-99 -43 -268 -60 -375 -17 -107 -33 -207 -36 -223 l-6 -27 159 0 159 0 16 123
c52 373 59 405 73 335 3 -18 15 -71 25 -118 29 -131 60 -298 60 -320 0 -19 7
-20 170 -20 94 0 170 4 170 9 0 4 -34 111 -75 236 -41 126 -75 234 -75 241 0
7 19 22 43 32 114 51 190 195 190 362 -1 97 -17 146 -66 198 -73 78 -187 102
-472 102 -166 0 -184 -2 -189 -17z m357 -240 c46 -23 56 -41 57 -101 0 -86
-43 -155 -113 -181 -33 -13 -77 -14 -77 -3 0 4 11 70 25 147 14 77 25 143 25
148 0 13 50 7 83 -10z"/>
<path d="M5380 1253 c0 -10 7 -38 15 -63 8 -25 34 -115 56 -200 23 -85 55
-204 71 -265 34 -127 33 -155 -6 -400 -13 -82 -27 -169 -30 -192 l-6 -43 155
0 c85 0 155 4 155 8 0 5 7 49 15 98 8 49 26 159 39 244 24 151 27 158 81 255
31 55 60 107 65 115 13 20 60 104 100 176 18 33 43 78 56 102 13 23 30 53 38
65 7 12 25 43 40 70 l27 47 -160 0 -161 0 -14 -32 c-7 -18 -35 -78 -61 -133
-26 -55 -57 -121 -68 -147 -12 -26 -26 -46 -32 -45 -5 2 -20 77 -32 168 -13
90 -25 169 -27 176 -4 10 -44 13 -161 13 -141 0 -155 -2 -155 -17z"/>
</g>
</svg>
